<mxfile host="app.diagrams.net" modified="2024-02-20T07:59:14.191Z" agent="Mozilla/5.0 (Windows NT 10.0; Win64; x64) AppleWebKit/537.36 (KHTML, like Gecko) Chrome/121.0.0.0 Safari/537.36" etag="61Vay3QIy7eqPRU1jsZ7" version="22.1.21" type="github">
  <diagram name="Page-1" id="c37626ed-c26b-45fb-9056-f9ebc6bb27b6">
    <mxGraphModel dx="2249" dy="1359" grid="1" gridSize="10" guides="1" tooltips="1" connect="1" arrows="1" fold="1" page="1" pageScale="1" pageWidth="1100" pageHeight="850" background="none" math="0" shadow="0">
      <root>
        <mxCell id="0" />
        <mxCell id="1" parent="0" />
        <mxCell id="BwZW3aH1JovADfxMem91-1" style="edgeStyle=orthogonalEdgeStyle;rounded=0;orthogonalLoop=1;jettySize=auto;html=1;exitX=1;exitY=0.5;exitDx=0;exitDy=0;entryX=0;entryY=0.5;entryDx=0;entryDy=0;" edge="1" parent="1" target="BwZW3aH1JovADfxMem91-9">
          <mxGeometry relative="1" as="geometry">
            <mxPoint x="1150" y="-520" as="sourcePoint" />
          </mxGeometry>
        </mxCell>
        <mxCell id="BwZW3aH1JovADfxMem91-3" style="edgeStyle=orthogonalEdgeStyle;rounded=0;orthogonalLoop=1;jettySize=auto;html=1;exitX=1;exitY=0.5;exitDx=0;exitDy=0;entryX=0;entryY=0.5;entryDx=0;entryDy=0;" edge="1" parent="1" source="BwZW3aH1JovADfxMem91-5">
          <mxGeometry relative="1" as="geometry">
            <mxPoint x="360" y="-520" as="targetPoint" />
          </mxGeometry>
        </mxCell>
        <mxCell id="BwZW3aH1JovADfxMem91-4" style="edgeStyle=orthogonalEdgeStyle;rounded=0;orthogonalLoop=1;jettySize=auto;html=1;exitX=0.5;exitY=0;exitDx=0;exitDy=0;entryX=0.5;entryY=1;entryDx=0;entryDy=0;" edge="1" parent="1" source="BwZW3aH1JovADfxMem91-5" target="BwZW3aH1JovADfxMem91-7">
          <mxGeometry relative="1" as="geometry" />
        </mxCell>
        <mxCell id="BwZW3aH1JovADfxMem91-5" value="RabbitMQ&lt;br&gt;数据加密解密" style="rounded=1;whiteSpace=wrap;html=1;" vertex="1" parent="1">
          <mxGeometry x="100" y="-550" width="120" height="60" as="geometry" />
        </mxCell>
        <mxCell id="BwZW3aH1JovADfxMem91-6" style="edgeStyle=orthogonalEdgeStyle;rounded=0;orthogonalLoop=1;jettySize=auto;html=1;exitX=0.5;exitY=1;exitDx=0;exitDy=0;entryX=0.5;entryY=0;entryDx=0;entryDy=0;" edge="1" parent="1">
          <mxGeometry relative="1" as="geometry">
            <mxPoint x="145" y="-630" as="sourcePoint" />
            <mxPoint x="145" y="-550" as="targetPoint" />
            <Array as="points">
              <mxPoint x="145" y="-600" />
              <mxPoint x="145" y="-600" />
            </Array>
          </mxGeometry>
        </mxCell>
        <mxCell id="BwZW3aH1JovADfxMem91-7" value="设备" style="rounded=1;whiteSpace=wrap;html=1;" vertex="1" parent="1">
          <mxGeometry x="120" y="-690" width="80" height="60" as="geometry" />
        </mxCell>
        <mxCell id="BwZW3aH1JovADfxMem91-8" style="edgeStyle=orthogonalEdgeStyle;rounded=0;orthogonalLoop=1;jettySize=auto;html=1;entryX=0;entryY=0.5;entryDx=0;entryDy=0;" edge="1" parent="1" source="BwZW3aH1JovADfxMem91-9" target="BwZW3aH1JovADfxMem91-12">
          <mxGeometry relative="1" as="geometry" />
        </mxCell>
        <mxCell id="BwZW3aH1JovADfxMem91-9" value="给指定部门编号的分组发送指定上报信息list" style="rounded=1;whiteSpace=wrap;html=1;" vertex="1" parent="1">
          <mxGeometry x="1270" y="-550" width="140" height="60" as="geometry" />
        </mxCell>
        <mxCell id="BwZW3aH1JovADfxMem91-10" value="警报信息上报、解除报警上报" style="text;html=1;align=center;verticalAlign=middle;resizable=0;points=[];autosize=1;strokeColor=none;fillColor=none;" vertex="1" parent="1">
          <mxGeometry x="-35" y="-612" width="180" height="30" as="geometry" />
        </mxCell>
        <mxCell id="BwZW3aH1JovADfxMem91-11" value="设备复位、重启、学习、设置" style="text;html=1;align=center;verticalAlign=middle;resizable=0;points=[];autosize=1;strokeColor=none;fillColor=none;" vertex="1" parent="1">
          <mxGeometry x="160" y="-612" width="180" height="30" as="geometry" />
        </mxCell>
        <mxCell id="BwZW3aH1JovADfxMem91-12" value="前端应用、移动端" style="rounded=1;whiteSpace=wrap;html=1;" vertex="1" parent="1">
          <mxGeometry x="1480" y="-550" width="120" height="60" as="geometry" />
        </mxCell>
        <mxCell id="BwZW3aH1JovADfxMem91-23" style="edgeStyle=orthogonalEdgeStyle;rounded=0;orthogonalLoop=1;jettySize=auto;html=1;exitX=1;exitY=0.5;exitDx=0;exitDy=0;" edge="1" parent="1" source="BwZW3aH1JovADfxMem91-13" target="BwZW3aH1JovADfxMem91-22">
          <mxGeometry relative="1" as="geometry" />
        </mxCell>
        <mxCell id="BwZW3aH1JovADfxMem91-13" value="给上报信息补充部门编号" style="rounded=1;whiteSpace=wrap;html=1;" vertex="1" parent="1">
          <mxGeometry x="360" y="-550" width="120" height="60" as="geometry" />
        </mxCell>
        <mxCell id="BwZW3aH1JovADfxMem91-14" style="edgeStyle=orthogonalEdgeStyle;rounded=0;orthogonalLoop=1;jettySize=auto;html=1;exitX=0.5;exitY=1;exitDx=0;exitDy=0;" edge="1" parent="1">
          <mxGeometry relative="1" as="geometry">
            <mxPoint x="415" y="-490" as="sourcePoint" />
            <mxPoint x="415" y="-380" as="targetPoint" />
          </mxGeometry>
        </mxCell>
        <mxCell id="BwZW3aH1JovADfxMem91-15" style="edgeStyle=orthogonalEdgeStyle;rounded=0;orthogonalLoop=1;jettySize=auto;html=1;exitX=0.5;exitY=0;exitDx=0;exitDy=0;entryX=0.5;entryY=1;entryDx=0;entryDy=0;" edge="1" parent="1" source="BwZW3aH1JovADfxMem91-16">
          <mxGeometry relative="1" as="geometry">
            <mxPoint x="420" y="-490" as="targetPoint" />
          </mxGeometry>
        </mxCell>
        <mxCell id="BwZW3aH1JovADfxMem91-16" value="设备信息表" style="swimlane;fontStyle=0;childLayout=stackLayout;horizontal=1;startSize=26;fillColor=none;horizontalStack=0;resizeParent=1;resizeParentMax=0;resizeLast=0;collapsible=1;marginBottom=0;html=1;" vertex="1" parent="1">
          <mxGeometry x="350" y="-380" width="140" height="104" as="geometry" />
        </mxCell>
        <mxCell id="BwZW3aH1JovADfxMem91-17" value="Item 1" style="text;strokeColor=none;fillColor=none;align=left;verticalAlign=top;spacingLeft=4;spacingRight=4;overflow=hidden;rotatable=0;points=[[0,0.5],[1,0.5]];portConstraint=eastwest;whiteSpace=wrap;html=1;" vertex="1" parent="BwZW3aH1JovADfxMem91-16">
          <mxGeometry y="26" width="140" height="26" as="geometry" />
        </mxCell>
        <mxCell id="BwZW3aH1JovADfxMem91-18" value="Item 2" style="text;strokeColor=none;fillColor=none;align=left;verticalAlign=top;spacingLeft=4;spacingRight=4;overflow=hidden;rotatable=0;points=[[0,0.5],[1,0.5]];portConstraint=eastwest;whiteSpace=wrap;html=1;" vertex="1" parent="BwZW3aH1JovADfxMem91-16">
          <mxGeometry y="52" width="140" height="26" as="geometry" />
        </mxCell>
        <mxCell id="BwZW3aH1JovADfxMem91-19" value="Item 3" style="text;strokeColor=none;fillColor=none;align=left;verticalAlign=top;spacingLeft=4;spacingRight=4;overflow=hidden;rotatable=0;points=[[0,0.5],[1,0.5]];portConstraint=eastwest;whiteSpace=wrap;html=1;" vertex="1" parent="BwZW3aH1JovADfxMem91-16">
          <mxGeometry y="78" width="140" height="26" as="geometry" />
        </mxCell>
        <mxCell id="BwZW3aH1JovADfxMem91-20" value="根据设备编号获取该设备所属部门编号" style="text;html=1;align=center;verticalAlign=middle;resizable=0;points=[];autosize=1;strokeColor=none;fillColor=none;" vertex="1" parent="1">
          <mxGeometry x="170" y="-440" width="230" height="30" as="geometry" />
        </mxCell>
        <mxCell id="BwZW3aH1JovADfxMem91-21" value="上报信息list" style="text;html=1;align=center;verticalAlign=middle;resizable=0;points=[];autosize=1;strokeColor=none;fillColor=none;" vertex="1" parent="1">
          <mxGeometry x="235" y="-552" width="90" height="30" as="geometry" />
        </mxCell>
        <mxCell id="BwZW3aH1JovADfxMem91-22" value="根据部门编号拆分出有权限查看的部门编号list，根据部门编号分组成Map&amp;lt;String,List&amp;lt;&amp;gt;&amp;gt;形式，string为部门编号，List&amp;lt;&amp;gt;为上报信息list" style="rounded=1;whiteSpace=wrap;html=1;" vertex="1" parent="1">
          <mxGeometry x="800" y="-550" width="370" height="60" as="geometry" />
        </mxCell>
        <mxCell id="BwZW3aH1JovADfxMem91-26" value="推送Map" style="text;html=1;align=center;verticalAlign=middle;resizable=0;points=[];autosize=1;strokeColor=none;fillColor=none;" vertex="1" parent="1">
          <mxGeometry x="1190" y="-550" width="70" height="30" as="geometry" />
        </mxCell>
      </root>
    </mxGraphModel>
  </diagram>
</mxfile>
